<svg width="17" height="24" viewBox="0 0 17 24" fill="none" xmlns="http://www.w3.org/2000/svg">
<path fill-rule="evenodd" clip-rule="evenodd" d="M14.8678 24H1.75637C1.06361 24 0.5 23.4365 0.5 22.7438V4.16446C0.5 3.47175 1.06361 2.9082 1.75637 2.9082H14.8678C15.5605 2.9082 16.124 3.4717 16.124 4.16446V22.7438C16.124 23.4365 15.5605 24 14.8678 24ZM1.75637 3.51755C1.39963 3.51755 1.10936 3.80777 1.10936 4.16446V22.7438C1.10936 23.1004 1.39963 23.3906 1.75637 23.3906H14.8678C15.2244 23.3906 15.5147 23.1005 15.5147 22.7438V4.16446C15.5147 3.80777 15.2245 3.51755 14.8678 3.51755H1.75637Z" fill="white"/>
<path fill-rule="evenodd" clip-rule="evenodd" d="M12.6097 15.4726H4.01757C3.84925 15.4726 3.71289 15.3363 3.71289 15.168C3.71289 14.9997 3.84925 14.8633 4.01757 14.8633H12.6097C12.778 14.8633 12.9144 14.9997 12.9144 15.168C12.9144 15.3363 12.778 15.4726 12.6097 15.4726Z" fill="white"/>
<path fill-rule="evenodd" clip-rule="evenodd" d="M12.6097 18.4229H4.01757C3.84925 18.4229 3.71289 18.2865 3.71289 18.1182C3.71289 17.9499 3.84925 17.8135 4.01757 17.8135H12.6097C12.778 17.8135 12.9144 17.9499 12.9144 18.1182C12.9144 18.2865 12.778 18.4229 12.6097 18.4229Z" fill="white"/>
<path fill-rule="evenodd" clip-rule="evenodd" d="M12.6097 21.374H4.01757C3.84925 21.374 3.71289 21.2376 3.71289 21.0693C3.71289 20.9011 3.84925 20.7646 4.01757 20.7646H12.6097C12.778 20.7646 12.9144 20.9011 12.9144 21.0693C12.9144 21.2376 12.778 21.374 12.6097 21.374Z" fill="white"/>
<path fill-rule="evenodd" clip-rule="evenodd" d="M8.31313 13.433C6.13519 13.433 4.36328 11.6611 4.36328 9.48305C4.36328 7.30511 6.13519 5.5332 8.31313 5.5332C10.4911 5.5332 12.263 7.30511 12.263 9.48305C12.263 11.6611 10.4911 13.433 8.31313 13.433ZM8.31313 6.14263C6.47122 6.14263 4.97269 7.64115 4.97269 9.48312C4.97269 11.3251 6.47116 12.8237 8.31313 12.8237C10.1551 12.8237 11.6536 11.3251 11.6536 9.48312C11.6536 7.64115 10.1551 6.14263 8.31313 6.14263Z" fill="white"/>
<path fill-rule="evenodd" clip-rule="evenodd" d="M8.313 13.433C7.74579 13.433 7.23314 12.9903 6.86942 12.1862C6.54049 11.4591 6.35938 10.4991 6.35938 9.48305C6.35938 8.46711 6.54054 7.5071 6.86942 6.77999C7.23314 5.97601 7.74579 5.5332 8.313 5.5332C8.88026 5.5332 9.39291 5.97601 9.75663 6.77999C10.0856 7.5071 10.2667 8.46704 10.2667 9.48305C10.2667 10.4991 10.0856 11.4591 9.75668 12.1862C9.39291 12.9903 8.88026 13.433 8.313 13.433ZM8.313 6.14263C7.67722 6.14263 6.96873 7.51454 6.96873 9.48312C6.96873 11.4518 7.67717 12.8237 8.313 12.8237C8.94888 12.8237 9.65738 11.4518 9.65738 9.48312C9.65738 7.51448 8.94883 6.14263 8.313 6.14263Z" fill="white"/>
<path fill-rule="evenodd" clip-rule="evenodd" d="M11.9583 9.78812H4.66796C4.4997 9.78812 4.36328 9.65171 4.36328 9.48344C4.36328 9.31513 4.4997 9.17871 4.66796 9.17871L11.9583 9.17877C12.1265 9.17877 12.263 9.31518 12.263 9.48344C12.263 9.65171 12.1265 9.78812 11.9583 9.78812Z" fill="white"/>
<path fill-rule="evenodd" clip-rule="evenodd" d="M8.3109 7.94719C7.35306 7.94719 6.42916 7.59998 5.70937 6.96947C5.58282 6.85853 5.57008 6.66606 5.68102 6.53945C5.7919 6.4129 5.98448 6.40016 6.11098 6.51109C6.71961 7.04424 7.50088 7.33784 8.3109 7.33784C9.12092 7.33784 9.9023 7.04424 10.5109 6.51109C10.6376 6.40016 10.8301 6.41295 10.9409 6.53945C11.0518 6.66606 11.039 6.85858 10.9125 6.96947C10.1926 7.59998 9.26869 7.94719 8.3109 7.94719Z" fill="white"/>
<path fill-rule="evenodd" clip-rule="evenodd" d="M5.91027 12.5311C5.82553 12.5311 5.74123 12.496 5.68097 12.4272C5.57009 12.3006 5.58283 12.1081 5.70938 11.9973C6.42912 11.3667 7.35296 11.0195 8.31085 11.0195C9.26869 11.0195 10.1926 11.3667 10.9125 11.9973C11.039 12.1081 11.0518 12.3006 10.9409 12.4272C10.83 12.5537 10.6375 12.5665 10.5109 12.4556C9.90225 11.9224 9.12093 11.6289 8.31079 11.6289C7.50066 11.6289 6.71945 11.9225 6.11087 12.4556C6.0531 12.5063 5.98155 12.5311 5.91027 12.5311Z" fill="white"/>
<path fill-rule="evenodd" clip-rule="evenodd" d="M14.4155 3.51755C14.4151 3.51755 14.4157 3.51755 14.4155 3.51755H2.60536C2.46036 3.51755 2.33546 3.41536 2.30672 3.27324L2.30207 3.25026C2.24723 2.97936 2.30157 2.70249 2.45515 2.47092C2.60879 2.2393 2.84263 2.08156 3.11369 2.02667L13.0197 0.0206589C13.0873 0.00692317 13.1564 0 13.2252 0C13.7175 0 14.1458 0.349984 14.2435 0.832172L14.7084 3.12841C14.7161 3.15521 14.7203 3.18352 14.7203 3.21282C14.7202 3.38113 14.5838 3.51755 14.4155 3.51755ZM2.91353 2.90819H14.042L13.6462 0.953174C13.6059 0.754007 13.4288 0.609394 13.2252 0.609394C13.197 0.609394 13.1686 0.612274 13.1407 0.617979L3.23461 2.62395C3.12311 2.64649 3.02663 2.71179 2.96305 2.80772C2.942 2.83946 2.92544 2.87313 2.91353 2.90819Z" fill="white"/>
</svg>
