<svg width="25" height="24" viewBox="0 0 25 24" fill="none" xmlns="http://www.w3.org/2000/svg">
<path d="M23.0449 15.1575C23.0456 14.401 22.8567 13.6564 22.4954 12.9917C22.1342 12.3271 21.6121 11.7636 20.9769 11.3527C20.3417 10.9418 19.6136 10.6967 18.8593 10.6398C18.105 10.5829 17.3484 10.7159 16.6587 11.0267C15.969 11.3375 15.3682 11.8163 14.9113 12.4192C14.4543 13.022 14.1558 13.7298 14.0429 14.4779C13.93 15.2259 14.0064 15.9903 14.2651 16.7011C14.5237 17.412 14.9565 18.0467 15.5237 18.5473V23.671L18.3471 21.7749C18.3978 21.7408 18.4575 21.7226 18.5186 21.7226C18.5796 21.7226 18.6393 21.7408 18.69 21.7749L21.5134 23.671V18.5473C21.9948 18.1234 22.3803 17.6019 22.6444 17.0174C22.9085 16.4329 23.045 15.7988 23.0449 15.1575ZM18.5186 12.3407C19.0757 12.3407 19.6203 12.5059 20.0835 12.8154C20.5467 13.1249 20.9077 13.5648 21.1209 14.0795C21.3341 14.5942 21.3899 15.1606 21.2812 15.707C21.1725 16.2534 20.9043 16.7553 20.5103 17.1492C20.1164 17.5431 19.6145 17.8114 19.0681 17.9201C18.5217 18.0288 17.9553 17.973 17.4406 17.7598C16.926 17.5466 16.486 17.1856 16.1765 16.7224C15.867 16.2591 15.7018 15.7146 15.7018 15.1575C15.7027 14.4107 15.9997 13.6947 16.5278 13.1666C17.0558 12.6386 17.7718 12.3415 18.5186 12.3407Z" fill="white"/>
<path d="M14.6355 5.19336H6.62917C6.5589 5.19323 6.4893 5.20695 6.42435 5.23375C6.35939 5.26055 6.30036 5.29989 6.25063 5.34953C6.2009 5.39917 6.16145 5.45813 6.13453 5.52303C6.10761 5.58793 6.09375 5.65751 6.09375 5.72777C6.09375 5.79804 6.10761 5.86761 6.13453 5.93252C6.16145 5.99742 6.2009 6.05638 6.25063 6.10602C6.30036 6.15565 6.35939 6.195 6.42435 6.2218C6.4893 6.24859 6.5589 6.26232 6.62917 6.26219H14.6355C14.7057 6.26232 14.7753 6.24859 14.8403 6.2218C14.9052 6.195 14.9643 6.15565 15.014 6.10602C15.0637 6.05638 15.1032 5.99742 15.1301 5.93252C15.157 5.86761 15.1709 5.79804 15.1709 5.72777C15.1709 5.65751 15.157 5.58793 15.1301 5.52303C15.1032 5.45813 15.0637 5.39917 15.014 5.34953C14.9643 5.29989 14.9052 5.26055 14.8403 5.23375C14.7753 5.20695 14.7057 5.19323 14.6355 5.19336Z" fill="white"/>
<path d="M14.6355 8.95703H6.62917C6.5589 8.9569 6.4893 8.97063 6.42435 8.99742C6.35939 9.02422 6.30036 9.06357 6.25063 9.1132C6.2009 9.16284 6.16145 9.2218 6.13453 9.2867C6.10761 9.35161 6.09375 9.42118 6.09375 9.49145C6.09375 9.56171 6.10761 9.63128 6.13453 9.69619C6.16145 9.76109 6.2009 9.82005 6.25063 9.86969C6.30036 9.91932 6.35939 9.95867 6.42435 9.98547C6.4893 10.0123 6.5589 10.026 6.62917 10.0259H14.6355C14.7057 10.026 14.7753 10.0123 14.8403 9.98547C14.9052 9.95867 14.9643 9.91932 15.014 9.86969C15.0637 9.82005 15.1032 9.76109 15.1301 9.69619C15.157 9.63128 15.1709 9.56171 15.1709 9.49145C15.1709 9.42118 15.157 9.35161 15.1301 9.2867C15.1032 9.2218 15.0637 9.16284 15.014 9.1132C14.9643 9.06357 14.9052 9.02422 14.8403 8.99742C14.7753 8.97063 14.7057 8.9569 14.6355 8.95703Z" fill="white"/>
<path d="M10.583 12.7207H6.62917C6.5589 12.7206 6.4893 12.7343 6.42435 12.7611C6.35939 12.7879 6.30036 12.8272 6.25063 12.8769C6.2009 12.9265 6.16145 12.9855 6.13453 13.0504C6.10761 13.1153 6.09375 13.1849 6.09375 13.2551C6.09375 13.3254 6.10761 13.395 6.13453 13.4599C6.16145 13.5248 6.2009 13.5837 6.25063 13.6334C6.30036 13.683 6.35939 13.7223 6.42435 13.7491C6.4893 13.7759 6.5589 13.7897 6.62917 13.7895H10.583C10.6532 13.7897 10.7228 13.7759 10.7878 13.7491C10.8527 13.7223 10.9118 13.683 10.9615 13.6334C11.0112 13.5837 11.0507 13.5248 11.0776 13.4599C11.1045 13.395 11.1184 13.3254 11.1184 13.2551C11.1184 13.1849 11.1045 13.1153 11.0776 13.0504C11.0507 12.9855 11.0112 12.9265 10.9615 12.8769C10.9118 12.8272 10.8527 12.7879 10.7878 12.7611C10.7228 12.7343 10.6532 12.7206 10.583 12.7207Z" fill="white"/>
<path d="M18.5208 0.328125H2.75056C2.64593 0.328013 2.5423 0.348514 2.4456 0.388459C2.34889 0.428403 2.261 0.487008 2.18695 0.560925C2.1129 0.634843 2.05413 0.722625 2.01401 0.819258C1.97389 0.915891 1.9532 1.01948 1.95313 1.12411V20.1349C1.95305 20.2397 1.97363 20.3434 2.01368 20.4402C2.05373 20.5369 2.11247 20.6249 2.18653 20.6989C2.26059 20.773 2.34853 20.8317 2.44531 20.8718C2.54209 20.9118 2.64582 20.9324 2.75056 20.9323H14.5815V19.3389H3.548V1.92155H17.7233V9.74347C18.2521 9.66599 18.7894 9.66599 19.3182 9.74347V1.12411C19.3181 1.01948 19.2974 0.915892 19.2573 0.81926C19.2172 0.722627 19.1584 0.634846 19.0844 0.560928C19.0103 0.487011 18.9224 0.428406 18.8257 0.388461C18.729 0.348516 18.6254 0.328014 18.5208 0.328125Z" fill="white"/>
</svg>
