<svg width="18" height="24" viewBox="0 0 18 24" fill="none" xmlns="http://www.w3.org/2000/svg">
<path fill-rule="evenodd" clip-rule="evenodd" d="M11.6111 0H2.28023C1.29704 0 0.5 0.798523 0.5 1.78429V22.2157C0.5 23.2011 1.29193 24 2.27549 24H15.6134C16.594 24 17.3889 23.2016 17.3889 22.2304V6.66667V6.22222L12.0556 0H11.6111ZM11.1667 0.888889H2.27385C1.7851 0.888889 1.38889 1.29357 1.38889 1.77374V22.2263C1.38889 22.715 1.79307 23.1111 2.27774 23.1111H15.6111C16.102 23.1111 16.5 22.7156 16.5 22.2281V7.11111H12.9426C11.9618 7.11111 11.1667 6.32306 11.1667 5.32807V0.888889ZM12.0556 1.33333V5.32553C12.0556 5.82076 12.4561 6.22222 12.9415 6.22222H16.2333L12.0556 1.33333ZM3.16667 6.22222V7.11111H7.61111V6.22222H3.16667ZM3.16667 3.55556V4.44444H9.38889V3.55556H3.16667ZM3.16667 8.88889V9.77778H14.7222V8.88889H3.16667ZM3.16667 11.5556V12.4444H12.0556V11.5556H3.16667ZM3.16667 14.2222V15.1111H14.7222V14.2222H3.16667ZM3.16667 16.8889V17.7778H11.1667V16.8889H3.16667ZM3.16667 19.5556V20.4444H14.7222V19.5556H3.16667Z" fill="white"/>
</svg>
