<svg width="16" height="16" viewBox="0 0 16 16" fill="none" xmlns="http://www.w3.org/2000/svg">
<path d="M15.4421 8.2793H8.83744C8.68941 8.2793 8.54744 8.3381 8.44277 8.44277C8.3381 8.54744 8.2793 8.68941 8.2793 8.83744V15.4421C8.2793 15.5901 8.3381 15.7321 8.44277 15.8368C8.54744 15.9414 8.68941 16.0002 8.83744 16.0002H14.1844C14.6657 15.9992 15.127 15.8076 15.4673 15.4673C15.8076 15.127 15.9992 14.6657 16.0002 14.1844V8.83744C16.0002 8.68941 15.9414 8.54744 15.8368 8.44277C15.7321 8.3381 15.5901 8.2793 15.4421 8.2793ZM14.8839 14.1844C14.8839 14.3699 14.8102 14.5479 14.6791 14.6791C14.5479 14.8102 14.3699 14.8839 14.1844 14.8839H9.39558V9.39558H14.8839V14.1844Z" fill="#262F45"/>
<path d="M14.1844 0H8.83744C8.68941 0 8.54744 0.0588037 8.44277 0.163475C8.3381 0.268147 8.2793 0.410112 8.2793 0.55814V7.16279C8.2793 7.31082 8.3381 7.45278 8.44277 7.55745C8.54744 7.66213 8.68941 7.72093 8.83744 7.72093H15.4421C15.5901 7.72093 15.7321 7.66213 15.8368 7.55745C15.9414 7.45278 16.0002 7.31082 16.0002 7.16279V1.81581C15.9992 1.33453 15.8076 0.873244 15.4673 0.532926C15.127 0.192607 14.6657 0.000983214 14.1844 0ZM14.8839 6.60465H9.39558V1.11628H14.1844C14.3699 1.11628 14.5479 1.18998 14.6791 1.32117C14.8102 1.45236 14.8839 1.63029 14.8839 1.81581V6.60465Z" fill="#262F45"/>
<path d="M7.16279 8.2793H0.55814C0.410112 8.2793 0.268147 8.3381 0.163475 8.44277C0.0588037 8.54744 0 8.68941 0 8.83744V14.1844C0.000983214 14.6657 0.192607 15.127 0.532926 15.4673C0.873244 15.8076 1.33453 15.9992 1.81581 16.0002H7.16279C7.31082 16.0002 7.45278 15.9414 7.55745 15.8368C7.66213 15.7321 7.72093 15.5901 7.72093 15.4421V8.83744C7.72093 8.68941 7.66213 8.54744 7.55745 8.44277C7.45278 8.3381 7.31082 8.2793 7.16279 8.2793ZM6.60465 14.8839H1.81581C1.63029 14.8839 1.45236 14.8102 1.32117 14.6791C1.18998 14.5479 1.11628 14.3699 1.11628 14.1844V9.39558H6.60465V14.8839Z" fill="#262F45"/>
<path d="M7.16279 0H1.81581C1.33453 0.000983214 0.873244 0.192607 0.532926 0.532926C0.192607 0.873244 0.000983214 1.33453 0 1.81581V7.16279C0 7.31082 0.0588037 7.45278 0.163475 7.55745C0.268147 7.66213 0.410112 7.72093 0.55814 7.72093H7.16279C7.31082 7.72093 7.45278 7.66213 7.55745 7.55745C7.66213 7.45278 7.72093 7.31082 7.72093 7.16279V0.55814C7.72093 0.410112 7.66213 0.268147 7.55745 0.163475C7.45278 0.0588037 7.31082 0 7.16279 0ZM6.60465 6.60465H1.11628V1.81581C1.11628 1.63029 1.18998 1.45236 1.32117 1.32117C1.45236 1.18998 1.63029 1.11628 1.81581 1.11628H6.60465V6.60465Z" fill="#262F45"/>
</svg>
